<?xml version="1.0" encoding="utf-8"?>
<!-- Generator: Adobe Illustrator 26.2.1, SVG Export Plug-In . SVG Version: 6.00 Build 0)  -->
<svg version="1.1" id="Laag_1" xmlns="http://www.w3.org/2000/svg" xmlns:xlink="http://www.w3.org/1999/xlink" x="0px" y="0px"
	 viewBox="0 0 480 480" style="enable-background:new 0 0 480 480;" xml:space="preserve">
<style type="text/css">
	.st0{fill:#FCE666;}
	.st1{fill:#FDD020;}
</style>
<path class="st0" d="M360,368H120c-4.4,0-8-3.6-8-8s3.6-8,8-8h240c4.4,0,8,3.6,8,8S364.4,368,360,368z"/>
<path class="st0" d="M376,336H104c-4.4,0-8-3.6-8-8s3.6-8,8-8h272c4.4,0,8,3.6,8,8S380.4,336,376,336z"/>
<path class="st0" d="M304,432H176c-4.4,0-8-3.6-8-8s3.6-8,8-8h128c4.4,0,8,3.6,8,8S308.4,432,304,432z"/>
<path class="st0" d="M344,400H144c-4.4,0-8-3.6-8-8s3.6-8,8-8h200c4.4,0,8,3.6,8,8S348.4,400,344,400z"/>
<g>
	<path class="st1" d="M240,128c-4.4,0-8-3.6-8-8V56c0-4.4,3.6-8,8-8s8,3.6,8,8v64C248,124.4,244.4,128,240,128z"/>
	<path class="st1" d="M120,176c-2.1,0-4.2-0.8-5.7-2.3l-48-48c-3-3.1-3-8.1,0.1-11.2s8.1-3.1,11.2-0.1l48,48c2.3,2.3,3,5.7,1.7,8.7
		S123.2,176,120,176z"/>
	<path class="st1" d="M360,176c-3.2,0-6.2-1.9-7.4-4.9s-0.6-6.4,1.7-8.7l48-48c3.1-3,8.1-3,11.2,0.1s3.1,8.1,0.1,11.2l-48,48
		C364.2,175.2,362.1,176,360,176z"/>
	<path class="st1" d="M472,304h-64c-4.4,0-8-3.6-8-8s3.6-8,8-8h64c4.4,0,8,3.6,8,8S476.4,304,472,304z"/>
	<path class="st1" d="M72,304H8c-4.4,0-8-3.6-8-8s3.6-8,8-8h64c4.4,0,8,3.6,8,8S76.4,304,72,304z"/>
</g>
<path class="st1" d="M240,144c-79.5,0-144,64.5-144,144v16h288v-16C384,208.5,319.5,144,240,144z M277.7,261.7l-32,32
	c-1.5,1.5-3.5,2.4-5.7,2.4s-4.2-0.8-5.7-2.4l-32-32c-3-3.1-3-8.1,0.1-11.2s8.1-3.1,11.2-0.1l18.3,18.3V224c0-4.4,3.6-8,8-8
	s8,3.6,8,8v44.7l18.3-18.3c3.1-3.1,8.2-3.1,11.3,0C280.8,253.5,280.8,258.5,277.7,261.7z"/>
</svg>
