<?xml version="1.0" encoding="utf-8"?>
<!-- Generator: Adobe Illustrator 26.2.1, SVG Export Plug-In . SVG Version: 6.00 Build 0)  -->
<svg version="1.1" id="Laag_1" xmlns="http://www.w3.org/2000/svg" xmlns:xlink="http://www.w3.org/1999/xlink" x="0px" y="0px"
	 viewBox="0 0 472 472" style="enable-background:new 0 0 472 472;" xml:space="preserve">
<style type="text/css">
	.st0{fill:#FDD020;}
	.st1{fill:#A3D4F7;}
	.st2{fill:#FFA754;}
</style>
<g>
	<path class="st0" d="M416,168.1c0,57.4-46.5,104-104,104c-57.4,0-104-46.6-104-104s46.6-104,104-104
		C369.5,64.1,416,110.7,416,168.1z"/>
	<path class="st0" d="M464,176.1h-16c-4.4,0-8-3.6-8-8c0-4.4,3.6-8,8-8h16c4.4,0,8,3.6,8,8C472,172.5,468.4,176.1,464,176.1z"/>
	<path class="st0" d="M296,40.1c-4.4,0-8-3.6-8-8v-16c0-4.4,3.6-8,8-8c4.4,0,8,3.6,8,8v16C304,36.5,300.5,40.1,296,40.1z"/>
	<path class="st0" d="M408,80.1c-3.2,0-6.1-1.9-7.4-4.9c-1.2-3-0.6-6.4,1.7-8.7l16-16c2-2.1,5-2.9,7.8-2.2c2.8,0.7,5,2.9,5.7,5.7
		c0.7,2.8-0.1,5.8-2.2,7.8l-16,16C412.2,79.3,410.1,80.1,408,80.1z"/>
</g>
<path class="st1" d="M363.1,368c30.2,0.7,58.3-15,73.6-41c15.3-26,15.3-58.3,0-84.3c-15.3-26-43.5-41.7-73.6-41
	c-5.6,0-11.3,0.6-16.8,1.6c-6.9-32-35.4-54.8-68.1-54.5c-10,0-19.9,2.1-29,6.3c-16.1-41.3-59-65.5-102.7-57.8s-75.8,45-76.8,89.3
	c0,10.3,1.9,20.6,5.4,30.3c-27.1,0.2-52.1,14.9-65.4,38.5c-13.3,23.7-12.8,52.6,1.2,75.9c14,23.2,39.4,37.2,66.5,36.5"/>
<path class="st2" d="M248.1,256.1h-64l-32,96h72l-22.6,112L296,320h-64L248.1,256.1z"/>
</svg>
