<?xml version="1.0" encoding="utf-8"?>
<!-- Generator: Adobe Illustrator 26.2.1, SVG Export Plug-In . SVG Version: 6.00 Build 0)  -->
<svg version="1.1" id="Laag_1" xmlns="http://www.w3.org/2000/svg" xmlns:xlink="http://www.w3.org/1999/xlink" x="0px" y="0px"
	 viewBox="0 0 472 472" style="enable-background:new 0 0 472 472;" xml:space="preserve">
<style type="text/css">
	.st0{fill:#FCE666;}
	.st1{fill:#A3D4F7;}
	.st2{fill:#FFA754;}
</style>
<path class="st0" d="M424.8,180.3c-49.2-0.6-88.6-40.9-88.1-90.1c0.3-37.9,23.5-71.8,58.7-85.8c-12.3-3.3-25-4.8-37.8-4.3
	c-68,0.8-122.4,56.5-121.7,124.4c-0.7,68,53.7,123.6,121.7,124.4c51.4,0.2,97.2-32.7,113.3-81.5
	C457.3,176.3,441.2,180.8,424.8,180.3z"/>
<path class="st1" d="M363.1,368c30.2,0.7,58.3-15,73.6-41c15.3-26,15.3-58.3,0-84.3c-15.3-26-43.5-41.7-73.6-41
	c-5.6,0-11.3,0.6-16.8,1.6c-6.9-32-35.4-54.8-68.1-54.5c-10,0-19.9,2.1-29,6.3c-16.1-41.3-59-65.5-102.7-57.8s-75.8,45-76.8,89.3
	c0,10.3,1.9,20.6,5.4,30.3c-27.1,0.2-52.1,14.9-65.4,38.5c-13.3,23.7-12.8,52.6,1.2,75.9c14,23.2,39.4,37.2,66.5,36.5"/>
<path class="st2" d="M248.1,256.1h-64l-32,96h72l-22.6,112L296,320h-64L248.1,256.1z"/>
</svg>
